<svg width="317" height="237" viewBox="0 0 317 237" fill="none" xmlns="http://www.w3.org/2000/svg">
<g clip-path="url(#clip0_272_314)">
<path d="M290.918 172.77C283.338 181.849 274.013 190.08 263.28 197.228L275.141 233.134L223.936 216.305C204.068 223.022 181.888 226.77 158.496 226.77C145.01 226.77 131.937 225.525 119.467 223.178L119.453 223.164C100.369 218.136 96.5228 188.064 98.8557 175.21C104.663 143.214 139.265 136.13 156.177 137.678C166.594 138.633 178 142.493 185.867 141.411C193.741 140.323 210.913 130.579 223.074 125.835C228.168 123.855 233.31 122.504 238.354 121.741C256.597 118.969 270.994 123.367 281.432 132.205C290.554 139.927 299.612 161.521 290.918 172.77Z" fill="white"/>
<path d="M275.143 236.668C274.779 236.668 274.414 236.611 274.057 236.491L223.945 220.023C203.362 226.847 181.35 230.304 158.497 230.304C145.046 230.304 131.7 229.074 118.824 226.649C118.649 226.613 118.481 226.571 118.312 226.507C96.3845 220.483 93.0777 187.406 95.4106 174.565C101.394 141.594 136.058 132.275 156.494 134.149C160.725 134.538 165.027 135.365 169.188 136.171C175.346 137.359 181.161 138.483 185.399 137.903C189.736 137.302 198.143 133.329 206.269 129.489C211.573 126.979 217.058 124.384 221.815 122.532C227.034 120.502 232.429 119.06 237.837 118.24C255.891 115.496 271.745 119.385 283.683 129.489C294.409 138.568 303.537 162.177 293.68 174.94C293.652 174.976 293.624 175.011 293.596 175.046C286.359 183.715 277.567 191.648 267.444 198.656L278.464 232.008C278.884 233.274 278.555 234.667 277.623 235.614C276.957 236.293 276.054 236.661 275.136 236.661L275.143 236.668ZM223.938 212.769C224.302 212.769 224.667 212.825 225.024 212.946L269.622 227.603L259.961 198.351C259.457 196.831 260.031 195.163 261.356 194.286C271.843 187.3 280.874 179.317 288.195 170.556C295.116 161.484 287.487 141.948 279.178 134.92C268.824 126.159 254.889 122.814 238.874 125.247C233.963 125.989 229.073 127.304 224.33 129.143C219.805 130.91 214.431 133.449 209.233 135.909C200.238 140.166 191.74 144.182 186.338 144.925C180.965 145.667 174.604 144.437 167.864 143.136C163.871 142.365 159.737 141.566 155.856 141.213C143.792 140.11 108.063 144.097 102.297 175.859C99.9994 188.537 104.273 215.526 120.337 219.755C120.344 219.755 120.358 219.755 120.365 219.762C132.737 222.074 145.565 223.248 158.497 223.248C181 223.248 202.647 219.79 222.824 212.967C223.188 212.847 223.56 212.783 223.938 212.783V212.769Z" fill="#26231F"/>
<path d="M149.041 163.132C152.524 163.132 155.347 160.283 155.347 156.768C155.347 153.253 152.524 150.404 149.041 150.404C145.559 150.404 142.736 153.253 142.736 156.768C142.736 160.283 145.559 163.132 149.041 163.132Z" fill="#26231F"/>
<path d="M231.004 150.404C234.487 150.404 237.31 147.555 237.31 144.04C237.31 140.526 234.487 137.677 231.004 137.677C227.522 137.677 224.699 140.526 224.699 144.04C224.699 147.555 227.522 150.404 231.004 150.404Z" fill="#26231F"/>
<path d="M193.176 179.394C179.277 179.394 172.082 172.295 171.78 171.998C170.414 170.619 170.414 168.378 171.78 166.999C173.14 165.627 175.346 165.62 176.72 166.978C176.986 167.239 182.38 172.323 193.176 172.323C203.411 172.323 208.911 161.646 208.967 161.54C209.843 159.801 211.944 159.108 213.668 159.978C215.391 160.854 216.092 162.968 215.223 164.708C214.929 165.309 207.783 179.387 193.176 179.387V179.394Z" fill="#26231F"/>
<path d="M312.975 115.404C312.975 130.592 308.757 145.066 301.121 158.26C298.984 161.951 296.581 165.543 293.926 169.014C274.751 187.618 259.191 182.251 252.914 171.235C250.974 167.834 249.923 163.888 249.923 159.95C249.923 147.505 256.228 132.105 237.313 126.54C218.397 120.976 199.482 150.404 180.566 144.04C154.491 135.266 130.125 137.677 129.151 158.352C128.626 169.523 135.708 175.131 149.04 188.586C151.674 191.245 152.907 194.653 153.349 198.033C153.972 202.756 153.062 207.43 152.291 209.919C149.04 220.405 134.777 224.463 119.343 223.155H119.329C109.009 221.211 99.1034 218.517 89.7437 215.151L22.937 233.132L31.3649 178.687C14.1238 160.713 4.02148 138.907 4.02148 115.404C4.02148 83.0055 23.2102 53.8385 53.8463 33.4888C81.3648 15.2038 118.124 4.03906 158.498 4.03906C243.814 4.03906 312.975 53.9022 312.975 115.404Z" fill="#FF9F38"/>
<path d="M22.9379 236.668C22.0832 236.668 21.2495 236.35 20.598 235.763C19.7153 234.964 19.2949 233.769 19.4771 232.588L27.6387 179.868C9.89321 160.827 0.519531 138.575 0.519531 115.404C0.519531 98.8937 5.21338 82.9562 14.482 68.051C23.3582 53.768 35.9546 41.1467 51.9276 30.5335C81.0715 11.1666 118.924 0.503906 158.506 0.503906C200.491 0.503906 240.011 12.3192 269.771 33.779C299.896 55.4933 316.485 84.4835 316.485 115.404C316.485 130.889 312.338 145.907 304.155 160.042C301.948 163.846 299.447 167.593 296.708 171.171C296.603 171.306 296.484 171.44 296.365 171.56C283.523 184.019 272.987 185.504 266.408 184.563C259.536 183.573 253.511 179.359 249.889 172.995C247.626 169.029 246.428 164.518 246.428 159.95C246.428 157.305 246.687 154.576 246.946 151.939C248.074 140.208 248.137 133.406 236.34 129.934C228.479 127.622 220.037 132.862 211.098 138.405C201.01 144.663 190.578 151.133 179.46 147.399C161.862 141.474 146.631 141.212 138.708 146.685C134.883 149.33 132.9 153.204 132.648 158.522C132.255 166.886 136.977 171.588 147.325 181.898C148.642 183.213 150.043 184.606 151.514 186.09C154.422 189.025 156.208 192.893 156.818 197.573C157.637 203.796 156.117 209.403 155.634 210.98C152.131 222.272 138.133 228.289 119.092 226.691C118.952 226.684 118.811 226.663 118.685 226.641C108.667 224.753 98.8871 222.137 89.5975 218.856L23.8346 236.555C23.5334 236.632 23.2321 236.675 22.9309 236.675L22.9379 236.668ZM158.499 7.57468C120.269 7.57468 83.7897 17.8273 55.7738 36.4446C25.1097 56.8155 7.52527 85.5936 7.52527 115.404C7.52527 137.217 16.6397 158.253 33.8809 176.227C34.6445 177.026 34.9948 178.136 34.8266 179.232L27.2254 228.317L88.8409 211.736C89.5274 211.552 90.249 211.581 90.9216 211.821C100.113 215.123 109.823 217.76 119.792 219.641C135.086 220.907 146.526 216.679 148.95 208.858C149.728 206.348 150.379 202.304 149.882 198.493C149.476 195.381 148.362 192.886 146.568 191.082C145.104 189.605 143.724 188.226 142.414 186.925C131.625 176.184 125.117 169.7 125.656 158.182C126.006 150.715 129.152 144.719 134.749 140.845C144.614 134.021 161.715 133.965 181.674 140.682C189.688 143.376 198.306 138.03 207.427 132.374C217.27 126.265 227.449 119.95 238.294 123.139C256.236 128.421 254.891 142.4 253.91 152.617C253.665 155.205 253.427 157.645 253.427 159.943C253.427 163.231 254.323 166.611 255.949 169.46C258.527 173.992 262.59 176.863 267.389 177.556C274.556 178.588 282.823 174.813 291.314 166.639C293.808 163.365 296.085 159.943 298.095 156.471C305.64 143.433 309.473 129.609 309.473 115.397C309.473 55.9388 241.748 7.56761 158.499 7.56761V7.57468Z" fill="#26231F"/>
<path d="M79.6865 105.859C86.651 105.859 92.2968 100.161 92.2968 93.1317C92.2968 86.1025 86.651 80.4043 79.6865 80.4043C72.722 80.4043 67.0762 86.1025 67.0762 93.1317C67.0762 100.161 72.722 105.859 79.6865 105.859Z" fill="#26231F"/>
<path d="M180.567 105.859C187.532 105.859 193.178 100.161 193.178 93.1317C193.178 86.1025 187.532 80.4043 180.567 80.4043C173.603 80.4043 167.957 86.1025 167.957 93.1317C167.957 100.161 173.603 105.859 180.567 105.859Z" fill="#26231F"/>
<path d="M130.125 122.122C116.226 122.122 109.031 115.023 108.73 114.726C107.364 113.347 107.364 111.106 108.73 109.727C110.089 108.355 112.296 108.348 113.669 109.706C113.935 109.967 119.329 115.051 130.125 115.051C140.921 115.051 146.512 109.776 146.561 109.72C147.927 108.341 150.148 108.341 151.514 109.72C152.88 111.098 152.88 113.34 151.514 114.719C151.212 115.023 144.025 122.115 130.118 122.115L130.125 122.122Z" fill="#26231F"/>
</g>
<defs>
<clipPath id="clip0_272_314">
<rect width="316" height="237" fill="white" transform="translate(0.5)"/>
</clipPath>
</defs>
</svg>
