<svg width="141" height="118" viewBox="0 0 141 118" fill="none" xmlns="http://www.w3.org/2000/svg">
<path d="M69.5013 0.667969C37.3013 0.667969 11.168 26.8013 11.168 59.0013C11.168 91.2013 37.3013 117.335 69.5013 117.335C101.701 117.335 127.835 91.2013 127.835 59.0013C127.835 26.8013 101.701 0.667969 69.5013 0.667969ZM96.568 40.3346C95.693 49.5513 91.9013 71.9513 89.9763 82.2763C89.1596 86.6513 87.5263 88.1096 86.0096 88.2846C82.6263 88.5763 80.0596 86.068 76.793 83.9096C71.6596 80.5263 68.743 78.4263 63.7846 75.1596C58.0096 71.368 61.743 69.268 65.068 65.8846C65.943 65.0096 80.8763 51.418 81.168 50.193C81.2085 50.0074 81.2031 49.8148 81.1523 49.6318C81.1014 49.4488 81.0067 49.281 80.8763 49.143C80.5263 48.8513 80.0596 48.968 79.6513 49.0263C79.1263 49.143 70.9596 54.568 55.0346 65.3013C52.7013 66.8763 50.6013 67.693 48.7346 67.6346C46.6346 67.5763 42.668 66.468 39.693 65.4763C36.018 64.3096 33.1596 63.668 33.393 61.6263C33.5096 60.5763 34.968 59.5263 37.7096 58.418C54.743 51.0096 66.0596 46.1096 71.718 43.7763C87.9346 37.0096 91.2596 35.843 93.4763 35.843C93.943 35.843 95.0513 35.9596 95.7513 36.543C96.3346 37.0096 96.5096 37.6513 96.568 38.118C96.5096 38.468 96.6263 39.518 96.568 40.3346Z" fill="white"/>
</svg>
