<svg width="128" height="97" viewBox="0 0 128 97" fill="none" xmlns="http://www.w3.org/2000/svg">
<path d="M108.13 8.70965C99.7763 4.88533 90.9579 2.17223 81.8996 0.639648C80.66 2.85553 79.5385 5.13538 78.5396 7.46965C68.8907 6.01567 59.0785 6.01567 49.4296 7.46965C48.4302 5.13562 47.3086 2.8558 46.0696 0.639648C37.0055 2.18517 28.1812 4.90471 19.8196 8.72965C3.21959 33.2896 -1.28041 57.2396 0.969592 80.8496C10.691 88.0322 21.572 93.4947 33.1396 96.9996C35.7443 93.4964 38.0491 89.78 40.0296 85.8896C36.2679 84.4847 32.6372 82.7514 29.1796 80.7096C30.0896 80.0496 30.9796 79.3697 31.8396 78.7096C41.9006 83.4411 52.8816 85.8943 63.9996 85.8943C75.1176 85.8943 86.0986 83.4411 96.1596 78.7096C97.0296 79.4196 97.9196 80.0996 98.8196 80.7096C95.3552 82.7547 91.7179 84.4913 87.9496 85.8997C89.9277 89.7882 92.2326 93.5015 94.8396 96.9996C106.417 93.5088 117.306 88.0489 127.03 80.8596C129.67 53.4797 122.52 29.7496 108.13 8.70965ZM42.8796 66.3297C36.6096 66.3297 31.4296 60.6396 31.4296 53.6396C31.4296 46.6396 36.4296 40.8996 42.8596 40.8996C49.2896 40.8996 54.4296 46.6396 54.3196 53.6396C54.2096 60.6396 49.2696 66.3297 42.8796 66.3297ZM85.1196 66.3297C78.8396 66.3297 73.6796 60.6396 73.6796 53.6396C73.6796 46.6396 78.6796 40.8996 85.1196 40.8996C91.5596 40.8996 96.6596 46.6396 96.5496 53.6396C96.4396 60.6396 91.5096 66.3297 85.1196 66.3297Z" fill="white"/>
</svg>
