<svg width="1909" height="473" viewBox="0 0 1909 473" fill="none" xmlns="http://www.w3.org/2000/svg">
<path d="M161.72 473V283.908L0.39666 10.188H149.158L231.141 156.304L312.464 10.188H457.258L295.935 285.231V473H161.72ZM694.568 482.917C658.425 482.917 625.146 476.857 594.733 464.736C564.32 452.394 537.873 435.314 515.394 413.496C493.135 391.677 475.834 366.112 463.493 336.801C451.371 307.49 445.311 275.754 445.311 241.594C445.311 207.214 451.371 175.368 463.493 146.056C475.834 116.745 493.135 91.1801 515.394 69.3618C537.873 47.5435 564.32 30.5738 594.733 18.4525C625.146 6.33122 658.425 0.270597 694.568 0.270597C730.712 0.270597 763.88 6.44142 794.073 18.7831C824.486 31.1247 850.822 48.3149 873.081 70.3536C895.561 92.3922 912.971 118.067 925.313 147.379C937.655 176.47 943.825 207.875 943.825 241.594C943.825 275.754 937.655 307.49 925.313 336.801C912.971 366.112 895.561 391.677 873.081 413.496C850.822 435.314 824.486 452.394 794.073 464.736C763.88 476.857 730.712 482.917 694.568 482.917ZM694.568 357.958C710.656 357.958 725.312 355.314 738.535 350.024C751.979 344.515 763.549 336.691 773.246 326.553C782.943 316.415 790.436 304.184 795.726 289.859C801.015 275.534 803.66 259.445 803.66 241.594C803.66 217.792 799.031 197.186 789.775 179.776C780.519 162.365 767.626 148.921 751.097 139.445C734.789 129.968 715.946 125.23 694.568 125.23C678.48 125.23 663.714 127.985 650.27 133.494C637.047 138.784 625.587 146.497 615.89 156.635C606.193 166.773 598.7 179.004 593.411 193.329C588.121 207.654 585.477 223.743 585.477 241.594C585.477 265.396 590.105 286.002 599.361 303.412C608.617 320.823 621.4 334.267 637.708 343.743C654.237 353.22 673.191 357.958 694.568 357.958ZM1016.74 473V10.188H1150.3V181.428L1284.51 10.188H1451.79L1279.22 225.065L1471.62 473H1300.38L1191.29 325.561L1150.3 369.859V473H1016.74ZM1620.92 473V283.908L1459.6 10.188H1608.36L1690.34 156.304L1771.66 10.188H1916.46L1755.14 285.231V473H1620.92Z" fill="#FFDDA8"/>
</svg>
