<svg width="45" height="45" viewBox="0 0 45 45" fill="none" xmlns="http://www.w3.org/2000/svg">
<path d="M25.0428 33.9249C26.8542 30.5113 32.8913 30.5113 32.8913 30.5113C39.1833 30.4453 40.034 26.6246 40.6023 24.6941C40.1011 28.6928 38.297 32.4153 35.4688 35.2862C32.6406 38.1572 28.9456 40.0169 24.9548 40.5781C24.3627 39.3314 23.6623 36.5264 25.0428 33.9249Z" fill="#FF9F38"/>
<path d="M9.58524 11.1144L8.8299 10.4691C8.76753 10.4156 8.70759 10.3593 8.65024 10.3004C5.69553 13.6451 4.06774 17.9559 4.07424 22.4188C4.07424 32.4288 12.0987 40.5688 22.0666 40.7484C21.4194 38.8143 20.9959 35.6811 22.6129 32.6359C24.0979 29.8383 27.0862 28.7364 28.9892 28.2671C30.2288 27.9671 31.4965 27.7982 32.7714 27.7629H32.8686C35.4004 27.7336 36.3831 26.9874 36.8359 26.4759C37.3969 25.8453 37.6169 25.0973 37.9231 24.0541L37.9634 23.9184C38.1375 23.3266 38.5054 22.8105 39.0082 22.4531C39.5109 22.0956 40.1193 21.9176 40.7354 21.9476C40.6283 17.5491 38.937 13.337 35.9724 10.0859C35.9137 10.4104 35.8441 10.7148 35.7762 10.9824C35.4646 12.1943 34.9439 13.5033 34.3022 14.4749C33.6771 15.4283 32.5624 16.2771 31.8236 16.8088C31.2644 17.2103 30.6924 17.5421 30.2231 17.8153L30.0544 17.9124C29.6291 18.1563 29.2917 18.3524 28.9691 18.5633C28.3164 18.9941 27.9241 19.3773 27.6601 19.8961C27.8214 20.4864 27.9351 21.1666 27.9387 21.8761C27.9424 23.5664 27.0771 24.9011 26.0449 25.7334C25.0048 26.5652 23.7099 27.0132 22.3782 27.0021C16.9699 26.9434 13.7982 22.5306 13.3894 17.9858C13.2702 16.6639 12.6762 15.2394 11.8457 13.9121C11.2108 12.8897 10.4515 11.95 9.58524 11.1144Z" fill="#FF9F38"/>
<path d="M16.1303 17.7385C15.7874 13.9179 12.8413 10.3575 11.4094 9.05588L10.6211 8.37755C13.9204 5.59963 18.0964 4.07923 22.4094 4.08571C26.4684 4.08571 30.2194 5.40571 33.2554 7.63505C33.6844 8.93855 32.8668 11.661 32.0088 12.9627C31.6971 13.4339 30.9931 14.0205 30.2194 14.576C28.4778 15.8282 26.2778 16.446 25.1594 18.7524C24.8799 19.333 24.8257 19.9967 25.0073 20.615C25.1173 21.0184 25.1906 21.4565 25.1906 21.8837C25.1943 23.2679 23.7936 24.267 22.4094 24.2524C18.8088 24.2139 16.4511 21.3117 16.1303 17.7385Z" fill="#FF9F38"/>
</svg>
